<svg width="50" height="47" viewBox="0 0 50 47" fill="none" xmlns="http://www.w3.org/2000/svg">
<path d="M48.9631 23.1227L27.6529 1.92405L26.2244 0.502385C25.899 0.180599 25.4589 0 25.0001 0C24.5413 0 24.1012 0.180599 23.7757 0.502385L1.03706 23.1227C0.703573 23.4533 0.44001 23.8471 0.261931 24.2808C0.0838524 24.7144 -0.00513249 25.1792 0.000228598 25.6477C0.0222889 27.5798 1.63821 29.1222 3.57952 29.1222H5.92343V47H44.0768V29.1222H46.4703C47.4134 29.1222 48.3013 28.7544 48.9686 28.0903C49.2972 27.7643 49.5576 27.3767 49.7346 26.9498C49.9116 26.523 50.0018 26.0655 50 25.6037C50 24.6706 49.6305 23.7869 48.9631 23.1227ZM28.0885 43.0479H21.9117V31.8503H28.0885V43.0479ZM40.1059 25.1701V43.0479H31.6182V30.5329C31.6182 29.3198 30.631 28.3373 29.4122 28.3373H20.588C19.3692 28.3373 18.382 29.3198 18.382 30.5329V43.0479H9.89429V25.1701H4.59981L25.0056 4.87715L26.2796 6.14511L45.4059 25.1701H40.1059Z" fill="white"/>
</svg>
