<svg width="47" height="47" viewBox="0 0 47 47" fill="none" xmlns="http://www.w3.org/2000/svg">
<path d="M21.15 28.2H2.35V42.3C2.35 43.5465 2.84518 44.742 3.7266 45.6234C4.60802 46.5048 5.80348 47 7.05 47H39.95C41.1965 47 42.392 46.5048 43.2734 45.6234C44.1548 44.742 44.65 43.5465 44.65 42.3V28.2H25.85V32.9H21.15V28.2ZM21.15 25.85H0V11.75C0 9.165 2.115 7.05 4.7 7.05H14.1V4.7C14.1 3.45348 14.5952 2.25802 15.4766 1.3766C16.358 0.495177 17.5535 0 18.8 0L28.2 0C29.4465 0 30.642 0.495177 31.5234 1.3766C32.4048 2.25802 32.9 3.45348 32.9 4.7V7.05H42.3C43.5465 7.05 44.742 7.54518 45.6234 8.4266C46.5048 9.30802 47 10.5035 47 11.75V25.85H25.85V21.15H21.15V25.85ZM28.2 7.05V4.7H18.8V7.05H28.2Z" fill="white"/>
</svg>
