<svg width="18" height="18" viewBox="0 0 18 18" fill="none" xmlns="http://www.w3.org/2000/svg">
<path d="M0.562487 2.24995H17.4375C17.748 2.24995 18 1.74591 18 1.12498C18 0.503949 17.748 0 17.4375 0H0.562487C0.251974 0 0 0.504042 0 1.12498C0 1.74591 0.25202 2.24995 0.562487 2.24995Z" fill="white"/>
<path d="M17.4375 7.87501H0.562487C0.251974 7.87501 0 8.37905 0 8.99999C0 9.62092 0.25202 10.125 0.562487 10.125H17.4375C17.748 10.125 18 9.62092 18 8.99999C18 8.37905 17.748 7.87501 17.4375 7.87501Z" fill="white"/>
<path d="M17.4375 15.75H6.1875C5.87699 15.75 5.62501 16.2541 5.62501 16.875C5.62501 17.4961 5.87703 18 6.1875 18H17.4375C17.748 18 18 17.496 18 16.875C18 16.254 17.748 15.75 17.4375 15.75Z" fill="white"/>
</svg>
