<svg width="56" height="47" viewBox="0 0 56 47" fill="none" xmlns="http://www.w3.org/2000/svg">
<path d="M0 14.2786V37.6C0 40.093 0.98333 42.484 2.73367 44.2468C4.48401 46.0096 6.85798 47 9.33333 47H46.6667C49.142 47 51.516 46.0096 53.2663 44.2468C55.0167 42.484 56 40.093 56 37.6V9.4C56 6.90696 55.0167 4.51604 53.2663 2.7532C51.516 0.990354 49.142 0 46.6667 0H9.33333C6.85798 0 4.48401 0.990354 2.73367 2.7532C0.98333 4.51604 0 6.90696 0 9.4V14.2786ZM9.33333 4.7H46.6667C47.9043 4.7 49.0913 5.19518 49.9665 6.0766C50.8417 6.95802 51.3333 8.15348 51.3333 9.4V12.878L28 25.5304L4.66667 12.878V9.4C4.66667 8.15348 5.15833 6.95802 6.0335 6.0766C6.90867 5.19518 8.09566 4.7 9.33333 4.7ZM4.66667 18.2172L26.894 30.268C27.2339 30.4523 27.6139 30.5488 28 30.5488C28.3861 30.5488 28.7661 30.4523 29.106 30.268L51.3333 18.2172V37.6C51.3333 38.8465 50.8417 40.042 49.9665 40.9234C49.0913 41.8048 47.9043 42.3 46.6667 42.3H9.33333C8.09566 42.3 6.90867 41.8048 6.0335 40.9234C5.15833 40.042 4.66667 38.8465 4.66667 37.6V18.2172Z" fill="black"/>
</svg>
