<svg width="50" height="47" viewBox="0 0 50 47" fill="none" xmlns="http://www.w3.org/2000/svg">
<path d="M32.4984 37.1042C34.6591 38.716 37.2923 39.5856 39.998 39.5809C42.7029 39.5856 45.3356 38.7178 47.4976 37.1091V45.1406C47.4983 45.4583 47.4165 45.7709 47.2601 46.0483C47.1037 46.3258 46.878 46.5588 46.6045 46.7252C46.3311 46.8916 46.019 46.9857 45.6983 46.9985C45.3776 47.0113 45.0589 46.9424 44.7728 46.7984L44.5478 46.6623L39.998 43.515L35.4482 46.6623C35.1855 46.8439 34.8801 46.9558 34.5612 46.9873C34.2423 47.0188 33.9206 46.9689 33.6267 46.8424C33.3329 46.7158 33.0767 46.5168 32.8827 46.2644C32.6886 46.0119 32.5632 45.7145 32.5184 45.4004L32.5009 45.1406L32.4984 37.1066V37.1042ZM43.1228 8.3842e-09C44.8735 -8.59543e-05 46.5582 0.660858 47.8334 1.84802C49.1085 3.03517 49.8781 4.6591 49.985 6.38857L49.9975 6.80425L50 19.7843C48.9862 18.4484 47.7109 17.3284 46.2502 16.491L46.2477 6.80425C46.248 6.03856 45.9614 5.29997 45.4433 4.73139C44.9252 4.1628 44.2124 3.80466 43.4428 3.72625L43.1228 3.71141H6.87466C6.10105 3.71106 5.35481 3.99474 4.78035 4.50756C4.20588 5.02038 3.84403 5.72588 3.76481 6.48754L3.74981 6.80425V30.3098C3.74981 31.9107 4.97975 33.2295 6.55467 33.3853L6.87466 33.4027H29.1735C29.4235 33.8282 29.6985 34.239 29.9985 34.6299V37.1141H6.87466C5.12362 37.1141 3.43856 36.4528 2.16333 35.2651C0.888107 34.0775 0.118835 32.4529 0.0124997 30.723L8.47096e-09 30.3098V6.80425C-8.68438e-05 5.07155 0.667697 3.40408 1.86714 2.14198C3.06658 0.879881 4.70732 0.118224 6.45468 0.0123716L6.87466 8.3842e-09H43.1228ZM39.998 17.31C42.65 17.31 45.1934 18.3527 47.0687 20.2088C48.944 22.0648 49.9975 24.5822 49.9975 27.2071C49.9975 29.832 48.944 32.3493 47.0687 34.2054C45.1934 36.0614 42.65 37.1042 39.998 37.1042C37.346 37.1042 34.8026 36.0614 32.9273 34.2054C31.052 32.3493 29.9985 29.832 29.9985 27.2071C29.9985 24.5822 31.052 22.0648 32.9273 20.2088C34.8026 18.3527 37.346 17.31 39.998 17.31ZM23.1238 23.4957C23.5989 23.4958 24.0561 23.6744 24.4033 23.9954C24.7504 24.3164 24.9614 24.7558 24.9938 25.2249C25.0262 25.694 24.8775 26.1577 24.5777 26.5224C24.2779 26.8872 23.8494 27.1257 23.3788 27.1898L23.1238 27.2071H11.8744C11.3994 27.2069 10.9421 27.0283 10.595 26.7073C10.2479 26.3864 10.0368 25.9469 10.0044 25.4779C9.97206 25.0088 10.1208 24.545 10.4206 24.1803C10.7203 23.8156 11.1488 23.5771 11.6194 23.513L11.8744 23.4957H23.1238ZM38.1231 9.88719C38.5981 9.88733 39.0554 10.0659 39.4025 10.3869C39.7496 10.7079 39.9607 11.1473 39.9931 11.6164C40.0254 12.0855 39.8767 12.5492 39.5769 12.914C39.2772 13.2787 38.8487 13.5172 38.3781 13.5813L38.1231 13.5986H11.8744C11.3994 13.5984 10.9421 13.4198 10.595 13.0989C10.2479 12.7779 10.0368 12.3385 10.0044 11.8694C9.97206 11.4003 10.1208 10.9365 10.4206 10.5718C10.7203 10.2071 11.1488 9.96859 11.6194 9.90451L11.8744 9.88719H38.1231Z" fill="white"/>
</svg>
