<svg width="152" height="152" viewBox="0 0 152 152" fill="none" xmlns="http://www.w3.org/2000/svg">
	<path d="M76 0C34.0252 0 0 34.0252 0 76C0 117.975 34.0252 152 76 152C117.975 152 152 117.975 152 76C152 34.0252 117.975 0 76 0ZM128.577 45.6H104.143C103.007 37.0485 101.575 28.539 99.8488 20.0868C111.917 25.2847 121.99 34.2306 128.577 45.6ZM83.7064 15.7472C84.2232 18.4224 86.6476 31.236 88.6084 45.6H63.3916C65.3524 31.236 67.7768 18.4224 68.2936 15.7472C70.8244 15.4204 73.3856 15.2 76 15.2C78.6144 15.2 81.1756 15.4204 83.7064 15.7472ZM91.2 76C91.2 80.5448 90.8732 85.7736 90.3716 91.2H61.6284C61.1268 85.7736 60.8 80.5448 60.8 76C60.8 71.4552 61.1268 66.2264 61.6284 60.8H90.3716C90.8732 66.2264 91.2 71.4552 91.2 76ZM52.1512 20.0868C50.4253 28.539 48.9931 37.0485 47.8572 45.6H23.4232C30.0102 34.2306 40.0834 25.2847 52.1512 20.0868ZM17.1988 60.8H46.2384C45.8508 65.8768 45.6 71.0144 45.6 76C45.6 80.9856 45.8508 86.1232 46.246 91.2H17.1988C15.9372 86.3284 15.2 81.2592 15.2 76C15.2 70.7408 15.9448 65.6716 17.1988 60.8ZM23.4232 106.4H47.8572C49.286 117.222 51.0492 126.54 52.1512 131.913C40.0834 126.715 30.0102 117.769 23.4232 106.4ZM68.2936 136.253C66.4036 126.346 64.769 116.391 63.3916 106.4H88.6084C87.2276 116.391 85.5931 126.345 83.7064 136.253C81.1756 136.58 78.6144 136.8 76 136.8C73.3856 136.8 70.8244 136.58 68.2936 136.253ZM99.8488 131.913C100.951 126.54 102.714 117.222 104.143 106.4H128.577C121.99 117.769 111.917 126.715 99.8488 131.913ZM134.801 91.2H105.762C106.149 86.1232 106.4 80.9856 106.4 76C106.4 71.0144 106.149 65.8768 105.754 60.8H134.794C136.055 65.6716 136.8 70.7408 136.8 76C136.8 81.2592 136.063 86.3284 134.801 91.2Z" fill="white" />
</svg>
