<svg width="21" height="18" viewBox="0 0 21 18" fill="none" xmlns="http://www.w3.org/2000/svg">
<path d="M19.0312 0H1.96875C0.881836 0 0 0.863839 0 1.92857V16.0714C0 17.1362 0.881836 18 1.96875 18H19.0312C20.1182 18 21 17.1362 21 16.0714V1.92857C21 0.863839 20.1182 0 19.0312 0ZM15.6023 11.6719C15.7992 11.8647 15.7992 12.1781 15.6023 12.371L13.9412 13.9982C13.7443 14.1911 13.4244 14.1911 13.2275 13.9982L10.5 11.3022L7.77246 13.9982C7.57559 14.1911 7.25566 14.1911 7.05879 13.9982L5.39766 12.371C5.20078 12.1781 5.20078 11.8647 5.39766 11.6719L8.1498 9L5.39766 6.32812C5.20078 6.13527 5.20078 5.82188 5.39766 5.62902L7.05879 4.00179C7.25566 3.80893 7.57559 3.80893 7.77246 4.00179L10.5 6.69777L13.2275 4.00179C13.4244 3.80893 13.7443 3.80893 13.9412 4.00179L15.6023 5.62902C15.7992 5.82188 15.7992 6.13527 15.6023 6.32812L12.8502 9L15.6023 11.6719Z" fill="white"/>
</svg>
