<svg width="47" height="47" viewBox="0 0 47 47" fill="none" xmlns="http://www.w3.org/2000/svg">
<path d="M14.0961 37.6C11.5118 37.6 9.42091 39.715 9.42091 42.3C9.42091 44.885 11.5118 47 14.0961 47C16.6804 47 18.7948 44.885 18.7948 42.3C18.7948 39.715 16.6804 37.6 14.0961 37.6ZM37.5896 37.6C35.0054 37.6 32.9144 39.715 32.9144 42.3C32.9144 44.885 35.0054 47 37.5896 47C40.1739 47 42.2884 44.885 42.2884 42.3C42.2884 39.715 40.1739 37.6 37.5896 37.6ZM34.1831 25.85C35.9451 25.85 37.4957 24.8865 38.2945 23.4295L46.7051 8.178C46.9031 7.8218 47.0047 7.42006 46.9998 7.01253C46.9949 6.605 46.8838 6.20581 46.6773 5.85446C46.4708 5.50312 46.1762 5.21179 45.8226 5.0093C45.469 4.80682 45.0686 4.7002 44.6612 4.7H9.89078L7.68238 0H0V4.7H4.69871L13.1564 22.5365L9.98475 28.2705C8.26972 31.4195 10.5251 35.25 14.0961 35.25H42.2884V30.55H14.0961L16.6804 25.85H34.1831ZM12.1227 9.4H40.6673L34.1831 21.15H17.6906L12.1227 9.4Z" fill="white"/>
</svg>
