<svg width="158" height="158" viewBox="0 0 158 158" fill="none" xmlns="http://www.w3.org/2000/svg">
<path d="M4.41689 4.41689C7.24587 1.58875 11.0823 0 15.0825 0C19.0827 0 22.9191 1.58875 25.7481 4.41689L79.0911 57.7599L132.434 4.41689C135.279 1.6689 139.09 0.148352 143.045 0.182724C147.001 0.217095 150.784 1.80364 153.582 4.60065C156.379 7.39766 157.965 11.1813 157.999 15.1368C158.034 19.0922 156.513 22.9029 153.765 25.7481L100.422 79.0911L153.765 132.434C156.513 135.279 158.034 139.09 157.999 143.045C157.965 147.001 156.379 150.784 153.582 153.582C150.784 156.379 147.001 157.965 143.045 157.999C139.09 158.034 135.279 156.513 132.434 153.765L79.0911 100.422L25.7481 153.765C22.9029 156.513 19.0922 158.034 15.1368 157.999C11.1813 157.965 7.39766 156.379 4.60065 153.582C1.80364 150.784 0.217095 147.001 0.182724 143.045C0.148352 139.09 1.6689 135.279 4.41689 132.434L57.7599 79.0911L4.41689 25.7481C1.58875 22.9191 0 19.0827 0 15.0825C0 11.0823 1.58875 7.24587 4.41689 4.41689V4.41689Z" fill="white"/>
</svg>
